<?xml version="1.0"?>
<svg xmlns="http://www.w3.org/2000/svg" xmlns:xlink="http://www.w3.org/1999/xlink" xmlns:svgjs="http://svgjs.com/svgjs" version="1.1" width="512" height="512" x="0" y="0" viewBox="0 0 447.976 447.976" style="enable-background:new 0 0 512 512" xml:space="preserve" class=""><g>
<g xmlns="http://www.w3.org/2000/svg">
	<path style="" d="M433.936,190.044l-128-128c-18.752-18.752-49.12-18.752-67.872,0   c-18.752,18.72-18.752,49.152,0,67.872l94.048,94.08l-94.048,94.048c-18.752,18.752-18.752,49.12,0,67.872   c9.344,9.408,21.632,14.08,33.92,14.08s24.576-4.672,33.952-14.048l128-128C452.656,239.196,452.656,208.796,433.936,190.044z" fill="#a7c957" data-original="#ffc107" class=""/>
	<path style="" d="M209.936,190.044l-128-128c-18.752-18.752-49.12-18.752-67.872,0   c-18.752,18.72-18.752,49.152,0,67.872l94.048,94.08l-94.048,94.048c-18.752,18.752-18.752,49.12,0,67.872   c9.344,9.408,21.632,14.08,33.92,14.08s24.576-4.672,33.952-14.048l128-128C228.656,239.196,228.656,208.796,209.936,190.044z" fill="#a7c957" data-original="#ffc107" class=""/>
</g>
<g xmlns="http://www.w3.org/2000/svg">
</g>
<g xmlns="http://www.w3.org/2000/svg">
</g>
<g xmlns="http://www.w3.org/2000/svg">
</g>
<g xmlns="http://www.w3.org/2000/svg">
</g>
<g xmlns="http://www.w3.org/2000/svg">
</g>
<g xmlns="http://www.w3.org/2000/svg">
</g>
<g xmlns="http://www.w3.org/2000/svg">
</g>
<g xmlns="http://www.w3.org/2000/svg">
</g>
<g xmlns="http://www.w3.org/2000/svg">
</g>
<g xmlns="http://www.w3.org/2000/svg">
</g>
<g xmlns="http://www.w3.org/2000/svg">
</g>
<g xmlns="http://www.w3.org/2000/svg">
</g>
<g xmlns="http://www.w3.org/2000/svg">
</g>
<g xmlns="http://www.w3.org/2000/svg">
</g>
<g xmlns="http://www.w3.org/2000/svg">
</g>
</g></svg>
