<svg id="Capa_1" enable-background="new 0 0 512 512" height="512" viewBox="0 0 512 512" width="512" xmlns="http://www.w3.org/2000/svg"><g><g><g fill="#ffe5c2"><path d="m41 339.448h-35.849c-2.845 0-5.151 2.306-5.151 5.151v93.91c0 2.845 2.306 5.151 5.151 5.151h35.849z"/><path d="m292.838 303.322h-35.808c-4.218 0-8.262 1.675-11.245 4.658l-23.295 23.295c-3.42 3.42-8.146 5.381-12.964 5.381-4.313 0-8.421-1.561-11.565-4.395-6.521-5.877-7.711-15.761-2.766-22.99l.469-.685-7.481-7.481c-8.458-8.458-8.458-22.221 0-30.68l29.34-29.339c6.102-6.102 14.158-9.533 22.757-9.73l37.04-67.057c7.02-13.683 10.681-17.894 10.681-33.273v-18.898c0-10.112-12.715-14.601-19.064-6.73l-100.991 126.407c-11.247 14.078-19.167 30.514-23.17 48.082l-11.305 46.47c-1.869 7.683-8.75 13.091-16.657 13.091h-16.099v104.212h99.377c27.091 0 49.052-21.961 49.052-49.052v-20l1-.608v-24.964c0-7.72 6.28-14 14-14h28.695c10.015 0 18.162 8.147 18.162 18.162v39.313h2v-69.027c-.001-11.135-9.028-20.162-20.163-20.162z"/></g><g fill="#fed2a4"><path d="m41 339.448h-35.849c-2.845 0-5.151 2.306-5.151 5.151v93.91c0 2.845 2.306 5.151 5.151 5.151h35.849z"/><path d="m100.714 411.487v32.172h99.377c21.203 0 39.261-13.453 46.11-32.289-1.063.069-2.132.116-3.213.116h-142.274z"/></g><path d="m45.151 455.502h51.412c2.845 0 5.151-2.306 5.151-5.151v-117.594c0-2.845-2.306-5.151-5.151-5.151h-51.412c-2.845 0-5.151 2.306-5.151 5.151v117.594c0 2.845 2.306 5.151 5.151 5.151z" fill="#6e61b6"/><path d="m72.628 450.351v-117.594c0-2.845 2.306-5.151 5.151-5.151h-32.628c-2.845 0-5.151 2.306-5.151 5.151v117.594c0 2.845 2.306 5.151 5.151 5.151h32.628c-2.845 0-5.151-2.306-5.151-5.151z" fill="#6354b1"/></g><g fill="#ffbd86"><path d="m411.286 322.697h-36.292c-8.503 0-15.721-6.233-16.96-14.646l-32.684-241.174c-1.443-10.648-15.095-14.154-21.49-5.518-10.3 13.909-15.86 30.759-15.86 48.066v120.912h-46.941c-9.093 0-17.814 3.612-24.244 10.042l-29.34 29.34c-8.862 8.862-8.862 23.231 0 32.094l6.894 6.894v.001l1.28-.057c.499-.665 1.031-1.309 1.629-1.907l32.244-32.244c6.287-6.287 14.646-9.749 23.536-9.749h34.513c2.206 0 4 1.794 4 4v35.218l1 .353h.266c10.583 0 19.162 8.579 19.162 19.162v29.714 9.888 29.714c0 5.66-3.198 10.834-8.26 13.366-.451.226-.909.405-1.367.581 11.79 12.411 28.439 20.162 46.909 20.162h62.005z"/><path d="m506.849 322.697h-35.849v104.211h35.849c2.845 0 5.151-2.306 5.151-5.151v-93.91c0-2.843-2.306-5.15-5.151-5.15z"/></g><path d="m253.059 263.75c-9.093 0-17.814 3.612-24.244 10.042l-32.244 32.244c-7.259 7.259-7.259 19.027 0 26.286 7.259 7.259 19.027 7.259 26.286 0l22.979-22.979c3.215-3.215 7.575-5.021 12.122-5.021h34.613v-35.572c0-2.761-2.239-5-5-5z" fill="#fed2a4"/><g><path d="m292.838 334.036h-28.695c-8.284 0-15 6.716-15 15v25.571h30.857l2.16 19.437c1.11 9.995 9.993 16.107 19.544 12.96 6.226-2.051 10.296-7.818 10.296-14.204v-29.714-9.888c0-10.583-8.579-19.162-19.162-19.162z" fill="#fed2a4"/></g><path d="m415.437 438.751h51.412c2.845 0 5.151-2.306 5.151-5.151v-117.594c0-2.845-2.306-5.151-5.151-5.151h-51.412c-2.845 0-5.151 2.306-5.151 5.151v117.594c0 2.845 2.306 5.151 5.151 5.151z" fill="#6e61b6"/><path d="m442.463 433.6v-117.594c0-2.845 2.306-5.151 5.151-5.151h-32.177c-2.845 0-5.151 2.306-5.151 5.151v117.594c0 2.845 2.306 5.151 5.151 5.151h32.177c-2.845 0-5.151-2.306-5.151-5.151z" fill="#6354b1"/></g></svg>